<?xml version="1.0" encoding="utf-8"?>
<!-- Generator: Adobe Illustrator 15.1.0, SVG Export Plug-In . SVG Version: 6.00 Build 0)  -->
<!DOCTYPE svg PUBLIC "-//W3C//DTD SVG 1.1//EN" "http://www.w3.org/Graphics/SVG/1.1/DTD/svg11.dtd">
<svg version="1.1"
	 id="svg2" xmlns:svg="http://www.w3.org/2000/svg" xmlns:rdf="http://www.w3.org/1999/02/22-rdf-syntax-ns#" xmlns:cc="http://creativecommons.org/ns#" xmlns:dc="http://purl.org/dc/elements/1.1/"
	 xmlns="http://www.w3.org/2000/svg" xmlns:xlink="http://www.w3.org/1999/xlink" x="0px" y="0px" width="300px" height="79.885px"
	 viewBox="0 0 300 79.885" enable-background="new 0 0 300 79.885" xml:space="preserve">
<g id="g2995" transform="translate(165.274,21.91)">
	<path id="path2997" fill="#1D6196" d="M63.212,26.031c-1.012,0.638-2.08,1.183-3.199,1.647c-1.505,0.607-2.932,0.925-4.251,0.925
		c-2.025,0-3.583-0.286-4.635-0.898c-1.054-0.581-1.606-1.591-1.589-3.037c0-1.669,0.386-2.964,1.184-3.979
		c0.803-0.977,1.996-1.764,3.477-2.35c1.471-0.499,3.281-0.91,5.371-1.205c1.858-0.234,5.533-0.657,6.002-0.66
		c0.471-0.004,0.783-0.264,0.573,0.989c-0.093,0.544-1.153,4.899-1.64,6.879C64.364,24.935,63.574,25.8,63.212,26.031z
		 M77.632-4.577c-3.095-1.727-7.936-2.6-14.559-2.6c-3.274,0-6.566,0.264-9.869,0.776c-2.424,0.371-2.674,0.433-4.18,0.76
		c-3.098,0.675-3.576,3.777-3.576,3.777l-0.995,4.092c-0.564,2.617,0.927,2.509,1.591,2.307c1.354-0.409,2.086-0.814,4.846-1.439
		c2.639-0.599,5.426-1.047,7.649-1.029c3.262,0,5.742,0.358,7.391,1.046c1.649,0.72,2.467,1.944,2.467,3.697
		c0.005,0.417,0.017,0.81-0.134,1.153c-0.137,0.321-0.396,0.631-1.176,0.736c-4.656,0.277-7.996,0.702-12.02,1.288
		c-3.971,0.56-7.444,1.518-10.348,2.844c-3.096,1.373-5.412,3.211-7.009,5.539c-1.554,2.339-2.335,5.172-2.339,8.509
		c0,3.153,1.133,5.726,3.326,7.722c2.218,1.971,5.104,2.946,8.596,2.946c2.182-0.015,3.889-0.173,5.113-0.479
		c1.211-0.306,2.532-0.739,3.928-1.344c1.042-0.437,2.168-1.066,3.355-1.857c1.189-0.793,2.014-1.356,3.069-2.049l0.038,0.066
		l-0.297,1.312c-0.002,0.012-0.02,0.019-0.02,0.031l0.01,0.024c-0.34,1.58,0.609,2.895,2.175,3.049l0.02,0.028h0.138l0.006,0.007
		c1.039,0,4.604-0.002,6.271-0.007h1.163c0.077,0,0.085-0.023,0.114-0.042c1.599-0.195,3.131-1.497,3.491-3.06L81.821,7.54
		c0.138-0.604,0.245-1.302,0.31-2.105c0.074-0.811,0.162-1.479,0.136-1.961C82.28-0.161,80.718-2.849,77.632-4.577"/>
</g>
<g>
	<defs>
		<rect id="SVGID_1_" x="2" y="2" width="296" height="75.885"/>
	</defs>
	<clipPath id="SVGID_2_">
		<use xlink:href="#SVGID_1_"  overflow="visible"/>
	</clipPath>
	<g id="g3001" clip-path="url(#SVGID_2_)">
		<g id="g3007" transform="translate(101.082,45.728)">
			<path id="path3009" fill="#152D52" d="M39.438-30.426c-1.746,0-4.036,1.412-5.12,3.12c0,0-11.678,20.021-12.825,22.021
				c-0.624,1.076-1.255,0.393-1.361-0.008c-0.085-0.486-3.619-21.882-3.619-21.882c-0.397-1.723-2.197-3.201-4.447-3.194
				l-7.282,0.011c-1.755,0-2.85,1.406-2.459,3.105c0,0,5.566,31.551,6.651,38.972c0.542,4.104-0.056,4.832-0.056,4.832L1.703,29.135
				c-1.057,1.706-0.478,3.104,1.269,3.104l8.439-0.007c1.747,0,4.062-1.391,5.102-3.1l32.464-54.907c0,0,3.105-4.69,0.241-4.65
				C47.265-30.398,39.438-30.426,39.438-30.426"/>
		</g>
		<g id="g3011" transform="translate(39.137,49.474)">
			<path id="path3013" fill="#152D52" d="M16.495-39.305c-1.013-1.976-2.531-3.581-4.469-4.792c-2.01-1.24-4.348-2.096-7.074-2.61
				c-2.742-0.492-5.944-0.733-9.619-0.767l-17.012,0.013c-1.768,0.021-3.5,1.407-3.908,3.106L-37.057,5.514
				c-0.395,1.706,0.71,3.116,2.471,3.116h8.149c1.762,0,3.508-1.373,3.904-3.116l2.808-12.102c0.375-1.692,2.117-3.093,3.883-3.093
				h2.33c9.967-0.01,17.697-2.049,23.252-6.13c5.547-4.073,8.322-9.472,8.309-16.148C18.063-34.891,17.554-37.345,16.495-39.305
				 M-1.102-23.011c-2.457,1.796-5.862,2.696-10.283,2.696h-1.998c-1.761,0-2.872-1.396-2.484-3.111l2.453-10.571
				c0.374-1.703,2.131-3.116,3.892-3.1l2.667-0.017c3.115,0,5.483,0.533,7.081,1.594C1.8-34.489,2.6-32.859,2.572-30.668
				C2.619-27.368,1.368-24.814-1.102-23.011"/>
		</g>
	</g>
</g>
<g id="g3015" transform="translate(147.108,49.341)">
	<path id="path3017" fill="#1D6196" d="M56.484-38.99c-1.015-1.977-2.549-3.567-4.487-4.807c-1.988-1.235-4.351-2.098-7.086-2.601
		c-2.706-0.474-5.921-0.745-9.586-0.754l-17.05,0.009c-1.756,0.03-3.479,1.408-3.884,3.106L2.928,5.848
		C2.51,7.544,3.65,8.957,5.374,8.947l8.181-0.015c1.735,0.015,3.503-1.389,3.912-3.084l2.766-12.105
		c0.388-1.696,2.151-3.117,3.915-3.093h2.326c9.979,0,17.715-2.05,23.256-6.131c5.527-4.102,8.309-9.482,8.309-16.174
		C58.021-34.576,57.523-37.038,56.484-38.99 M38.894-22.674c-2.441,1.776-5.869,2.667-10.279,2.667h-2.027
		c-1.754,0.021-2.888-1.398-2.471-3.099l2.444-10.588c0.364-1.674,2.145-3.1,3.874-3.086l2.68-0.014
		c3.127,0.014,5.466,0.537,7.082,1.577c1.588,1.053,2.357,2.685,2.37,4.859C42.574-27.041,41.347-24.492,38.894-22.674"/>
</g>
<g id="g3019" transform="translate(57.28,21.938)">
	<path id="path3021" fill="#152D52" d="M23.215,25.965c-1.011,0.638-2.079,1.18-3.198,1.646c-1.505,0.604-2.938,0.925-4.253,0.925
		c-2.02,0-3.581-0.288-4.635-0.897c-1.053-0.583-1.607-1.593-1.59-3.04c0-1.665,0.389-2.964,1.186-3.978
		c0.804-0.979,1.993-1.767,3.473-2.352c1.476-0.502,3.292-0.907,5.375-1.202c1.858-0.234,5.536-0.656,6.005-0.663
		c0.466-0.002,0.78-0.264,0.57,0.989c-0.091,0.544-1.153,4.901-1.639,6.881C24.361,24.87,23.571,25.735,23.215,25.965z
		 M37.634-4.644c-3.095-1.727-7.933-2.599-14.556-2.599c-3.277,0-6.567,0.261-9.871,0.774C10.779-6.1,10.535-6.037,9.027-5.71
		c-3.1,0.677-3.577,3.777-3.577,3.777L4.456,2.162C3.892,4.778,5.385,4.67,6.047,4.467c1.35-0.408,2.087-0.812,4.847-1.44
		c2.634-0.596,5.425-1.043,7.646-1.027c3.264,0,5.742,0.355,7.391,1.044c1.651,0.72,2.464,1.947,2.464,3.698
		c0.011,0.417,0.019,0.812-0.127,1.152c-0.138,0.324-0.401,0.632-1.181,0.736c-4.65,0.281-7.989,0.704-12.02,1.291
		c-3.97,0.559-7.442,1.517-10.348,2.842c-3.096,1.373-5.409,3.214-7.003,5.541c-1.559,2.338-2.339,5.17-2.342,8.508
		c0,3.152,1.135,5.726,3.325,7.721c2.22,1.971,5.103,2.948,8.595,2.948c2.183-0.016,3.889-0.176,5.117-0.479
		c1.21-0.309,2.532-0.74,3.922-1.345c1.047-0.436,2.169-1.068,3.359-1.857c1.187-0.792,2.014-1.355,3.075-2.048l0.033,0.064
		l-0.297,1.311c-0.003,0.012-0.019,0.021-0.019,0.035l0.012,0.021c-0.34,1.584,0.607,2.897,2.173,3.049l0.019,0.03h0.137l0.004,0.01
		c1.042,0,4.609-0.005,6.271-0.01h1.165c0.078,0,0.089-0.025,0.114-0.042c1.602-0.201,3.128-1.501,3.493-3.058l5.952-25.69
		c0.134-0.603,0.244-1.3,0.304-2.102c0.08-0.815,0.166-1.48,0.143-1.961C42.284-0.229,40.719-2.917,37.634-4.644"/>
</g>
<g id="g3023" transform="translate(196.3,54.997)">
	<path id="path3025" fill="#1D6196" d="M74.704-52.397h-7.292c-0.004,0-0.009,0.001-0.011,0.001l-0.004-0.001
		c-1.67,0-3.363,1.278-3.836,2.905c-0.02,0.065-0.053,0.129-0.067,0.197c0,0-0.174,0.793-0.476,2.165l-10.016,45.4
		c-0.232,1.026-0.387,1.695-0.434,1.869l0.02,0.024c-0.347,1.587,0.607,2.9,2.174,3.047l0.02,0.03h7.569
		c1.658,0,3.341-1.267,3.829-2.873c0.023-0.078,0.061-0.15,0.078-0.229l10.926-49.438l-0.017-0.006
		C77.539-50.993,76.45-52.397,74.704-52.397"/>
</g>
<g id="g3027" transform="translate(206.375,47.652)">
	<path id="path3029" fill="#1D6196" d="M78.436-34.986c-0.248,0.065-0.52,0.12-0.816,0.163c-0.297,0.041-0.562,0.064-0.791,0.064
		c-0.814,0-1.428-0.22-1.85-0.654c-0.422-0.436-0.631-1.135-0.631-2.095v-4.217h-0.903v-1.124h0.903v-2.278h1.333v2.278h2.755v1.124
		h-2.755v3.613c0,0.416,0.013,0.742,0.028,0.976c0.021,0.236,0.087,0.454,0.201,0.657c0.102,0.19,0.244,0.327,0.428,0.415
		c0.184,0.089,0.463,0.133,0.836,0.133c0.217,0,0.445-0.033,0.684-0.098c0.234-0.062,0.405-0.116,0.51-0.158h0.068V-34.986"/>
</g>
<g id="g3031" transform="translate(216,47.601)">
	<path id="path3033" fill="#1D6196" d="M82-34.866h-1.334v-4.517c0-0.34-0.016-0.67-0.047-0.986c-0.032-0.318-0.1-0.57-0.196-0.761
		c-0.11-0.203-0.265-0.357-0.469-0.46c-0.204-0.104-0.496-0.156-0.88-0.156c-0.375,0-0.747,0.093-1.122,0.28
		c-0.374,0.187-0.747,0.424-1.121,0.713c0.014,0.109,0.024,0.235,0.034,0.381c0.011,0.144,0.016,0.286,0.016,0.429v5.077h-1.334
		v-4.517c0-0.351-0.018-0.683-0.048-0.997c-0.03-0.315-0.097-0.566-0.194-0.756c-0.111-0.204-0.268-0.355-0.472-0.459
		c-0.202-0.102-0.496-0.151-0.88-0.151c-0.364,0-0.728,0.09-1.096,0.27c-0.367,0.18-0.732,0.408-1.098,0.688v5.923h-1.337v-7.932
		h1.337v0.88c0.418-0.345,0.832-0.615,1.246-0.81c0.417-0.192,0.854-0.291,1.324-0.291c0.539,0,0.998,0.114,1.375,0.34
		c0.375,0.229,0.656,0.543,0.841,0.946c0.538-0.455,1.032-0.784,1.478-0.984c0.443-0.2,0.92-0.302,1.426-0.302
		c0.872,0,1.515,0.265,1.929,0.791C81.791-41.698,82-40.961,82-40.014V-34.866"/>
</g>
</svg>
